<svg width="63" height="70" viewBox="0 0 63 70" fill="none" xmlns="http://www.w3.org/2000/svg">
<path d="M54.3809 10.2539C54.3809 4.5999 49.7152 0 43.9805 0C38.2457 0 33.5801 4.5999 33.5801 10.2539C33.5801 15.9079 38.2457 20.5078 43.9805 20.5078C49.7152 20.5078 54.3809 15.9079 54.3809 10.2539ZM43.9805 16.4062C40.5396 16.4062 37.7402 13.6463 37.7402 10.2539C37.7402 6.8615 40.5396 4.10156 43.9805 4.10156C47.4213 4.10156 50.2207 6.8615 50.2207 10.2539C50.2207 13.6463 47.4213 16.4062 43.9805 16.4062Z" fill="#79C1E9"/>
<path d="M4.45898 67.9492C4.45898 69.0818 5.3903 70 6.53906 70H56.4609C57.6097 70 58.541 69.0818 58.541 67.9492V49.2052C61.1521 45.7777 62.7012 41.5209 62.7012 36.9141C62.7012 27.8677 55.2362 20.5078 46.0605 20.5078H35.6602C34.0633 20.5078 32.6048 21.1021 31.5 22.0782C30.3952 21.1021 28.9366 20.5078 27.3398 20.5078H16.9395C7.76381 20.5078 0.298828 27.8677 0.298828 36.9141C0.298828 41.5209 1.84793 45.7777 4.45898 49.2052V67.9492ZM8.61914 53.3099C12.098 55.8905 16.4207 57.4219 21.0996 57.4219V65.8984H8.61914V53.3099ZM29.4199 51.2695C29.4199 48.8261 27.9676 46.7111 25.8694 45.7189C26.246 45.3473 26.7662 45.1172 27.3398 45.1172H35.6602C36.2338 45.1172 36.754 45.3473 37.1306 45.7189C35.0324 46.7111 33.5801 48.8261 33.5801 51.2695C33.5801 53.9431 35.3192 56.2226 37.7402 57.0691V65.8984H25.2598V57.0691C27.6808 56.2226 29.4199 53.9431 29.4199 51.2695ZM41.9004 65.8984V57.4219C46.5793 57.4219 50.902 55.8905 54.3809 53.3099V65.8984H41.9004ZM31.5 28.7109C33.7939 28.7109 35.6602 30.5509 35.6602 32.8125C35.6602 35.0741 33.7939 36.9141 31.5 36.9141C29.2061 36.9141 27.3398 35.0741 27.3398 32.8125C27.3398 30.5509 29.2061 28.7109 31.5 28.7109ZM16.9395 24.6094H27.3398C27.8507 24.6094 28.3184 24.7926 28.6809 25.095C25.4765 26.2363 23.1797 29.2645 23.1797 32.8125C23.1797 37.3357 26.9122 41.0156 31.5 41.0156C36.0878 41.0156 39.8203 37.3357 39.8203 32.8125C39.8203 29.2645 37.5235 26.2363 34.3191 25.095C34.6815 24.7926 35.1493 24.6094 35.6602 24.6094H46.0605C52.9423 24.6094 58.541 30.1293 58.541 36.9141C58.541 45.9605 51.076 53.3203 41.9004 53.3203H39.8203C38.6734 53.3203 37.7402 52.4003 37.7402 51.2695C37.7402 50.1387 38.6734 49.2188 39.8203 49.2188H41.9004C48.7821 49.2188 54.3809 43.6989 54.3809 36.9141C54.3809 35.7815 53.4495 34.8633 52.3008 34.8633C51.152 34.8633 50.2207 35.7815 50.2207 36.9141C50.2207 41.4373 46.4882 45.1172 41.9004 45.1172H41.5426C40.684 42.7302 38.3719 41.0156 35.6602 41.0156H27.3398C24.6281 41.0156 22.316 42.7302 21.4574 45.1172H21.0996C16.5118 45.1172 12.7793 41.4373 12.7793 36.9141C12.7793 35.7815 11.848 34.8633 10.6992 34.8633C9.55046 34.8633 8.61914 35.7815 8.61914 36.9141C8.61914 43.6989 14.2179 49.2188 21.0996 49.2188H23.1797C24.3266 49.2188 25.2598 50.1387 25.2598 51.2695C25.2598 52.4003 24.3266 53.3203 23.1797 53.3203H21.0996C11.924 53.3203 4.45898 45.9605 4.45898 36.9141C4.45898 30.1293 10.0577 24.6094 16.9395 24.6094Z" fill="#79C1E9"/>
<path d="M29.4199 10.2539C29.4199 4.5999 24.7543 0 19.0195 0C13.2848 0 8.61914 4.5999 8.61914 10.2539C8.61914 15.9079 13.2848 20.5078 19.0195 20.5078C24.7543 20.5078 29.4199 15.9079 29.4199 10.2539ZM19.0195 16.4062C15.5787 16.4062 12.7793 13.6463 12.7793 10.2539C12.7793 6.8615 15.5787 4.10156 19.0195 4.10156C22.4604 4.10156 25.2598 6.8615 25.2598 10.2539C25.2598 13.6463 22.4604 16.4062 19.0195 16.4062Z" fill="#79C1E9"/>
</svg>
